{
  "accessors": [
    {
      "bufferView": 2,
      "componentType": 5126,
      "count": 36797,
      "max": [
        0.6338191628456116,
        0.5447304844856262,
        0.8263809084892273
      ],
      "min": [
        -0.7475883960723877,
        -0.7806039452552795,
        -0.8374650478363037
      ],
      "type": "VEC3"
    },
    {
      "bufferView": 2,
      "byteOffset": 441564,
      "componentType": 5126,
      "count": 36797,
      "max": [
        0.9999753832817078,
        0.9999870657920837,
        0.9999955892562866
      ],
      "min": [
        -0.9999956488609314,
        -0.999984622001648,
        -0.9999858140945435
      ],
      "type": "VEC3"
    },
    {
      "bufferView": 1,
      "componentType": 5126,
      "count": 36797,
      "max": [
        0.9958718419075012,
        0.9966351985931396
      ],
      "min": [
        0.0033648419193923473,
        0.0033648014068603516
      ],
      "type": "VEC2"
    },
    {
      "bufferView": 0,
      "componentType": 5125,
      "count": 150000,
      "type": "SCALAR"
    }
  ],
  "asset": {
    "extras": {
      "author": "WA7KVI (https://sketchfab.com/WA7KVI)",
      "license": "CC-BY-4.0 (http://creativecommons.org/licenses/by/4.0/)",
      "source": "https://sketchfab.com/3d-models/astronaught-e790a817f31f4cdf8cc2524c68d785a7",
      "title": "Astronaught"
    },
    "generator": "Sketchfab-15.55.0",
    "version": "2.0"
  },
  "bufferViews": [
    {
      "buffer": 0,
      "byteLength": 600000,
      "name": "floatBufferViews",
      "target": 34963
    },
    {
      "buffer": 0,
      "byteLength": 294376,
      "byteOffset": 600000,
      "byteStride": 8,
      "name": "floatBufferViews",
      "target": 34962
    },
    {
      "buffer": 0,
      "byteLength": 883128,
      "byteOffset": 894376,
      "byteStride": 12,
      "name": "floatBufferViews",
      "target": 34962
    }
  ],
  "buffers": [
    {
      "byteLength": 1777504,
      "uri": "scene.bin"
    }
  ],
  "images": [
    {
      "uri": "textures/default_baseColor.jpeg"
    }
  ],
  "materials": [
    {
      "doubleSided": true,
      "name": "default",
      "pbrMetallicRoughness": {
        "baseColorTexture": {
          "index": 0
        },
        "metallicFactor": 0.0
      }
    }
  ],
  "meshes": [
    {
      "name": "high_poly_default_0",
      "primitives": [
        {
          "attributes": {
            "NORMAL": 1,
            "POSITION": 0,
            "TEXCOORD_0": 2
          },
          "indices": 3,
          "material": 0,
          "mode": 4
        }
      ]
    }
  ],
  "nodes": [
    {
      "children": [
        1
      ],
      "matrix": [
        1.0,
        0.0,
        0.0,
        0.0,
        0.0,
        2.220446049250313e-16,
        -1.0,
        0.0,
        0.0,
        1.0,
        2.220446049250313e-16,
        0.0,
        0.0,
        0.0,
        0.0,
        1.0
      ],
      "name": "Sketchfab_model"
    },
    {
      "children": [
        2
      ],
      "matrix": [
        0.009999999776482582,
        0.0,
        0.0,
        0.0,
        0.0,
        0.0,
        0.009999999776482582,
        0.0,
        0.0,
        -0.009999999776482582,
        0.0,
        0.0,
        0.0,
        0.0,
        0.0,
        1.0
      ],
      "name": "model.fbx"
    },
    {
      "children": [
        3
      ],
      "name": "RootNode"
    },
    {
      "children": [
        4
      ],
      "matrix": [
        60.10171890258789,
        0.0,
        0.0,
        0.0,
        0.0,
        -2.6271296784134953e-06,
        -60.101718902587834,
        0.0,
        0.0,
        60.101718902587834,
        -2.6271296784134953e-06,
        0.0,
        0.0,
        0.0,
        0.0,
        1.0
      ],
      "name": "high_poly"
    },
    {
      "mesh": 0,
      "name": "high_poly_default_0"
    }
  ],
  "samplers": [
    {
      "magFilter": 9729,
      "minFilter": 9987,
      "wrapS": 10497,
      "wrapT": 10497
    }
  ],
  "scene": 0,
  "scenes": [
    {
      "name": "Sketchfab_Scene",
      "nodes": [
        0
      ]
    }
  ],
  "textures": [
    {
      "sampler": 0,
      "source": 0
    }
  ]
}
